<svg width="24" height="24" viewBox="0 0 24 24" fill="none" xmlns="http://www.w3.org/2000/svg">
<g clip-path="url(#clip0_1523_6415)">
<rect width="24" height="24" fill="#000C36"/>
<path d="M16.9422 5.57535C16.8157 5.39382 16.822 5.15045 16.9577 4.97606L24.7178 -5L27.9997 -2.18015L19.4547 7.09798C19.2982 7.26785 19.0492 7.31332 18.8432 7.20962L18.801 7.18839C18.0582 6.81441 17.4193 6.26003 16.9422 5.57535Z" fill="url(#paint0_linear_1523_6415)"/>
<path d="M16.9422 5.57535C16.8157 5.39382 16.822 5.15045 16.9577 4.97606L24.7178 -5L27.9997 -2.18015L19.4547 7.09798C19.2982 7.26785 19.0492 7.31332 18.8432 7.20962L18.801 7.18839C18.0582 6.81441 17.4193 6.26003 16.9422 5.57535Z" fill="url(#paint1_radial_1523_6415)"/>
<path d="M17.5642 10.3073C18.2138 9.50913 18.2895 7.8274 17.3627 7.03106C16.4359 6.23472 15.0098 6.15314 14.1413 7.17871C13.5108 7.92314 13.4481 8.58417 13.3871 9.22603C13.3109 10.0281 13.2376 10.8002 12.0631 11.6678C11.9923 11.72 12.0161 11.8344 12.1023 11.8509C15.9861 12.5947 17.5642 10.3073 17.5642 10.3073Z" fill="url(#paint2_linear_1523_6415)"/>
<path d="M17.5642 10.3073C18.2138 9.50913 18.2895 7.8274 17.3627 7.03106C16.4359 6.23472 15.0098 6.15314 14.1413 7.17871C13.5108 7.92314 13.4481 8.58417 13.3871 9.22603C13.3109 10.0281 13.2376 10.8002 12.0631 11.6678C11.9923 11.72 12.0161 11.8344 12.1023 11.8509C15.9861 12.5947 17.5642 10.3073 17.5642 10.3073Z" fill="url(#paint3_radial_1523_6415)"/>
<path d="M8.21944 10.2723C8.27949 9.78667 8.30951 9.54383 8.35063 9.49738C8.43022 9.40745 8.57056 9.40745 8.65016 9.49738C8.69127 9.54383 8.72129 9.78667 8.78134 10.2723C8.93471 11.5128 9.01139 12.133 9.22998 12.6484C9.64269 13.6215 10.4238 14.3917 11.4026 14.7907C11.921 15.002 12.5422 15.0699 13.7847 15.2058L13.8587 15.2139C14.4346 15.2769 14.7226 15.3084 14.7712 15.3538C14.856 15.4328 14.856 15.5672 14.7712 15.6463C14.7226 15.6916 14.4346 15.7231 13.8587 15.7861L13.7847 15.7942C12.5422 15.9301 11.921 15.9981 11.4026 16.2094C10.4238 16.6084 9.64269 17.3786 9.22998 18.3517C9.01139 18.867 8.93471 19.4873 8.78134 20.7277C8.72129 21.2134 8.69127 21.4562 8.65016 21.5027C8.57056 21.5926 8.43022 21.5926 8.35063 21.5027C8.30951 21.4562 8.27949 21.2134 8.21944 20.7277C8.06607 19.4873 7.98939 18.867 7.7708 18.3517C7.35809 17.3786 6.577 16.6084 5.5982 16.2094C5.07978 15.9981 4.45855 15.9301 3.21608 15.7942L3.14209 15.7861C2.56616 15.7231 2.2782 15.6916 2.22959 15.6463C2.14482 15.5672 2.14482 15.4328 2.22959 15.3538C2.2782 15.3084 2.56616 15.2769 3.14209 15.2139L3.21608 15.2058C4.45855 15.0699 5.07978 15.002 5.5982 14.7907C6.577 14.3917 7.35809 13.6215 7.7708 12.6484C7.98939 12.133 8.06607 11.5128 8.21944 10.2723Z" fill="white"/>
</g>
<defs>
<linearGradient id="paint0_linear_1523_6415" x1="22.6732" y1="5.64245" x2="13.8491" y2="5.30694" gradientUnits="userSpaceOnUse">
<stop offset="0.0258937" stop-color="#8A5ADE"/>
<stop offset="0.73226" stop-color="#FF61B4"/>
</linearGradient>
<radialGradient id="paint1_radial_1523_6415" cx="0" cy="0" r="1" gradientUnits="userSpaceOnUse" gradientTransform="translate(12.3717 11.9997) rotate(-30.5451) scale(10.4373 10.444)">
<stop stop-color="#FFF8D6"/>
<stop offset="0.189416" stop-color="#FFEA7E"/>
<stop offset="1" stop-color="#FFBCF8" stop-opacity="0"/>
</radialGradient>
<linearGradient id="paint2_linear_1523_6415" x1="22.6732" y1="5.64245" x2="13.8491" y2="5.30694" gradientUnits="userSpaceOnUse">
<stop offset="0.0258937" stop-color="#8A5ADE"/>
<stop offset="0.73226" stop-color="#FF61B4"/>
</linearGradient>
<radialGradient id="paint3_radial_1523_6415" cx="0" cy="0" r="1" gradientUnits="userSpaceOnUse" gradientTransform="translate(12.3717 11.9997) rotate(-30.5451) scale(10.4373 10.444)">
<stop stop-color="#FFF8D6"/>
<stop offset="0.189416" stop-color="#FFEA7E"/>
<stop offset="1" stop-color="#FFBCF8" stop-opacity="0"/>
</radialGradient>
<clipPath id="clip0_1523_6415">
<rect width="24" height="24" fill="white"/>
</clipPath>
</defs>
</svg>
