<svg width="24" height="24" viewBox="0 0 24 24" fill="none" xmlns="http://www.w3.org/2000/svg">
<g clip-path="url(#clip0_1523_6458)">
<rect width="24" height="24" fill="#E813BD"/>
<path d="M0 8C0 5.19974 0 3.79961 0.544967 2.73005C1.02433 1.78924 1.78924 1.02433 2.73005 0.544967C3.79961 0 5.19974 0 8 0H16C18.8003 0 20.2004 0 21.27 0.544967C22.2108 1.02433 22.9757 1.78924 23.455 2.73005C24 3.79961 24 5.19974 24 8V16C24 18.8003 24 20.2004 23.455 21.27C22.9757 22.2108 22.2108 22.9757 21.27 23.455C20.2004 24 18.8003 24 16 24H8C5.19974 24 3.79961 24 2.73005 23.455C1.78924 22.9757 1.02433 22.2108 0.544967 21.27C0 20.2004 0 18.8003 0 16V8Z" fill="#E813BD"/>
<path d="M3 18H8.83541V14.52C8.83541 14.112 8.89526 13.752 9.04489 13.416C9.17955 13.104 9.37406 12.936 9.64339 12.936C10.0025 12.984 10.2419 13.464 10.3616 14.328C10.3915 14.664 10.4065 15.888 10.4065 18H14.9401V14.52C14.9401 14.112 15 13.752 15.1496 13.416C15.2843 13.104 15.4788 12.936 15.7481 12.936C16.1072 12.984 16.3466 13.464 16.4663 14.328C16.4963 14.664 16.5112 15.888 16.5112 18H21V11.4C21 9.624 20.8055 8.28 20.4165 7.368C20.0274 6.456 19.3242 6 18.2918 6C17.3791 6 16.6309 6.456 16.0623 7.32C15.4938 8.184 15.1197 9.36 14.9551 10.8C14.9252 9.24 14.7157 8.04 14.3117 7.224C13.9077 6.408 13.2195 6 12.2469 6C11.1696 6 10.3317 6.6 9.74813 7.776C9.16459 8.952 8.85037 10.56 8.80549 12.6H4.16708V11.88C4.76559 11.88 5.27431 11.856 5.66334 11.808C6.05237 11.76 6.45636 11.64 6.90524 11.448C7.35411 11.256 7.69825 10.992 7.95262 10.632C8.19202 10.272 8.4015 9.768 8.58105 9.096C8.74564 8.448 8.83541 7.656 8.83541 6.72H3V18Z" fill="#F5F5F5"/>
</g>
<defs>
<clipPath id="clip0_1523_6458">
<rect width="24" height="24" fill="white"/>
</clipPath>
</defs>
</svg>
