<svg width="24" height="24" viewBox="0 0 24 24" fill="none" xmlns="http://www.w3.org/2000/svg">
<rect width="24" height="24" fill="#FFCD4E"/>
<path fill-rule="evenodd" clip-rule="evenodd" d="M5 11C5 8.23858 7.23858 6 10 6C12.7614 6 15 8.23858 15 11V13C15 15.7614 12.7614 18 10 18C7.23858 18 5 15.7614 5 13V11ZM13 11V13C13 14.6569 11.6569 16 10 16C8.34315 16 7 14.6569 7 13V11C7 9.34315 8.34315 8 10 8C11.6569 8 13 9.34315 13 11Z" fill="black"/>
<path d="M17 7C17 6.44772 17.4477 6 18 6C18.5523 6 19 6.44772 19 7V13C19 13.5523 18.5523 14 18 14C17.4477 14 17 13.5523 17 13V7Z" fill="black"/>
<path d="M18 16C17.4477 16 17 16.4477 17 17C17 17.5523 17.4477 18 18 18C18.5523 18 19 17.5523 19 17C19 16.4477 18.5523 16 18 16Z" fill="black"/>
</svg>
